<?xml version="1.0" encoding="utf-8"?>
<?xml-stylesheet type="text/xsl" href="rss1.xsl"?>
<rss version="2.0" xmlns:atom="http://www.w3.org/2005/Atom" xmlns:content="http://purl.org/rss/1.0/modules/content/" xmlns:dc="http://purl.org/dc/elements/1.1/" xmlns:media="http://search.yahoo.com/mrss/">
<channel>
 <title>Getty</title>
 <link>http://www.gettyimg.com/</link>
 <atom:link href="http://www.gettyimg.com/" rel="self" type="application/rss+xml" />

 
                <item>
                <title><![CDATA[【Albums (lossy)】Dolby Atmos - Fleetwood Mac -  Tango in the Night (2017 Remaster) (Dolby Atmos)]]></title>
                <link><![CDATA[https://sharemania.us/threads/fleetwood-mac-tango-in-the-night-2017-remaster-dolby-atmos.221470/]]></link>
                <description><![CDATA[<article>
<blockquote class="messageText SelectQuoteContainer ugc baseHtml">
<img src="https://i.scdn.co/image/ab67616d0000b2732af4ba32452b996f603c0b4d" class="bbCodeImage LbImage" alt="[​IMG]" data-url="https://i.scdn.co/image/ab67616d0000b2732af4ba32452b996f603c0b4d" style=""> <br>
Source: Tidal<br>
Format: .m4a E-AC3 JOC<br>
<div class="bbCodeBlock bbCodeVfcHH HiddenContent">
<div class="attribution type">Hidden Content:</div>
<blockquote>You must reply before you can see the hidden data contained here.</blockquote>
</div>
<div class="messageTextEndMarker">&nbsp;</div>
</blockquote>
</article>]]></description>
                <author><![CDATA[BbbDdd345]]></author>
                </item>

                
                <item>
                <title><![CDATA[【HD Live Performances】HDTV - Roger Waters - This Is Not A Drill - Live at O2 Arena (Prague, 25.05.2023) HDTV H264 1080i DD5.1-ilya2129]]></title>
                <link><![CDATA[https://sharemania.us/threads/roger-waters-this-is-not-a-drill-live-at-o2-arena-prague-25-05-2023-hdtv-h264-1080i-dd5-1-ilya2129.221465/]]></link>
                <description><![CDATA[<article>
<blockquote class="messageText SelectQuoteContainer ugc baseHtml">
<div style="text-align: center"><img src="https://i121.fastpic.org/big/2023/0526/a3/604e53300f203cf4ffc24765cfef32a3.png?r=1" class="bbCodeImage LbImage" alt="[​IMG]" data-url="https://i121.fastpic.org/big/2023/0526/a3/604e53300f203cf4ffc24765cfef32a3.png?r=1" style=""><br>
<br>
<a href="https://postimg.cc/f38phvXF" target="_blank" class="externalLink" rel="nofollow"><img src="https://i.postimg.cc/f38phvXF/vlcsnap-2023-05-26-13h23m35s072.png" class="bbCodeImage LbImage" alt="[​IMG]" data-url="https://i.postimg.cc/f38phvXF/vlcsnap-2023-05-26-13h23m35s072.png"></a> <a href="https://postimg.cc/Lhc7R5YH" target="_blank" class="externalLink" rel="nofollow"><img src="https://i.postimg.cc/Lhc7R5YH/vlcsnap-2023-05-26-13h23m36s677.png" class="bbCodeImage LbImage" alt="[​IMG]" data-url="https://i.postimg.cc/Lhc7R5YH/vlcsnap-2023-05-26-13h23m36s677.png"></a> <a href="https://postimg.cc/F1dq23KW" target="_blank" class="externalLink" rel="nofollow"><img src="https://i.postimg.cc/F1dq23KW/vlcsnap-2023-05-26-13h23m38s712.png" class="bbCodeImage LbImage" alt="[​IMG]" data-url="https://i.postimg.cc/F1dq23KW/vlcsnap-2023-05-26-13h23m38s712.png"></a> <a href="https://postimg.cc/JHk2ZVgV" target="_blank" class="externalLink" rel="nofollow"><img src="https://i.postimg.cc/JHk2ZVgV/vlcsnap-2023-05-26-13h23m40s901.png" class="bbCodeImage LbImage" alt="[​IMG]" data-url="https://i.postimg.cc/JHk2ZVgV/vlcsnap-2023-05-26-13h23m40s901.png"></a> <a href="https://postimg.cc/ppKSdvzK" target="_blank" class="externalLink" rel="nofollow"><img src="https://i.postimg.cc/ppKSdvzK/vlcsnap-2023-05-26-13h23m42s538.png" class="bbCodeImage LbImage" alt="[​IMG]" data-url="https://i.postimg.cc/ppKSdvzK/vlcsnap-2023-05-26-13h23m42s538.png"></a> <a href="https://postimg.cc/47M0YNWQ" target="_blank" class="externalLink" rel="nofollow"><img src="https://i.postimg.cc/47M0YNWQ/vlcsnap-2023-05-26-13h23m44s595.png" class="bbCodeImage LbImage" alt="[​IMG]" data-url="https://i.postimg.cc/47M0YNWQ/vlcsnap-2023-05-26-13h23m44s595.png"></a><br>
<br>
​</div><br>
<div class="bbCodeBlock bbCodeCode">
<div class="type">Code:</div>
<pre>General
ID                                       : 1 (0x1)
Complete name                            : D:\Roger Waters - This Is Not A Drill - Live at O2 Arena (Prague, 25.05.2023) HDTV H264 1080i DD5.1-ilya2129.ts
Format                                   : MPEG-TS
File size                                : 25.2 GiB
Duration                                 : 2 h 51 min
Overall bit rate mode                    : Variable
Overall bit rate                         : 21.0 Mb/s
Frame rate                               : 25.000 FPS

Video
ID                                       : 308 (0x134)
Menu ID                                  : 1 (0x1)
Format                                   : AVC
Format/Info                              : Advanced Video Codec
Format profile                           : High@L4
Format settings                          : CABAC / 3 Ref Frames
Format settings, CABAC                   : Yes
Format settings, Reference frames        : 3 frames
Codec ID                                 : 27
Duration                                 : 2 h 51 min
Bit rate mode                            : Constant
Bit rate                                 : 19.4 Mb/s
Width                                    : 1 920 pixels
Height                                   : 1 080 pixels
Display aspect ratio                     : 16:9
Frame rate                               : 25.000 FPS
Color space                              : YUV
Chroma subsampling                       : 4:2:0
Bit depth                                : 8 bits
Scan type                                : Interlaced
Scan type, store method                  : Separated fields
Scan order                               : Top Field First
Bits/(Pixel*Frame)                       : 0.374
Stream size                              : 22.7 GiB (90%)
Color range                              : Limited
Color primaries                          : BT.709
Transfer characteristics                 : BT.709
Matrix coefficients                      : BT.709

Audio #1
ID                                       : 256 (0x100)
Menu ID                                  : 1 (0x1)
Format                                   : AC-3
Format/Info                              : Audio Coding 3
Commercial name                          : Dolby Digital
Codec ID                                 : 129
Duration                                 : 2 h 51 min
Bit rate mode                            : Constant
Bit rate                                 : 640 kb/s
Channel(s)                               : 6 channels
Channel layout                           : L R C LFE Ls Rs
Sampling rate                            : 48.0 kHz
Frame rate                               : 31.250 FPS (1536 SPF)
Compression mode                         : Lossy
Stream size                              : 786 MiB (3%)
Language                                 : English
Service kind                             : Complete Main

Audio #2
ID                                       : 257 (0x101)
Menu ID                                  : 1 (0x1)
Format                                   : MPEG Audio
Format version                           : Version 1
Format profile                           : Layer 2
Format settings                          : Intensity Stereo + MS Stereo
Codec ID                                 : 3
Duration                                 : 2 h 51 min
Bit rate mode                            : Constant
Bit rate                                 : 384 kb/s
Channel(s)                               : 2 channels
Sampling rate                            : 48.0 kHz
Frame rate                               : 41.667 FPS (1152 SPF)
Compression mode                         : Lossy
Stream size                              : 472 MiB (2%)
Language                                 : English

</pre>
</div>
<div class="bbCodeBlock bbCodeVfcHH HiddenContent">
<div class="attribution type">Hidden Content:</div>
<blockquote>You must reply before you can see the hidden data contained here.</blockquote>
</div><div style="text-align: center">​</div>
<div class="messageTextEndMarker">&nbsp;</div>
</blockquote>
</article>]]></description>
                <author><![CDATA[ilya2129]]></author>
                </item>

                
                <item>
                <title><![CDATA[【UPSCALED】Bob Marley &amp; The Wailers - Three Little Birds [4K AI Upscale HEVC 10-bit / PCM 24-bit 96 kHz / DD+ Dolby Atmos]]]></title>
                <link><![CDATA[https://sharemania.us/threads/bob-marley-the-wailers-three-little-birds-4k-ai-upscale-hevc-10-bit-pcm-24-bit-96-khz-dd-dolby-atmos.221463/]]></link>
                <description><![CDATA[<article>
<blockquote class="messageText SelectQuoteContainer ugc baseHtml">
<b><img src="https://images2.imgbox.com/6b/b1/w769fBDY_o.jpg" class="bbCodeImage LbImage" alt="[​IMG]" data-url="https://images2.imgbox.com/6b/b1/w769fBDY_o.jpg" style=""> <br>
<br>
Genre: <span style="color: #0059b3">Reggae</span> <br>
Style: <span style="color: #0059b3">Reggae</span> <br>
Year: <span style="color: #0059b3">1980</span> <br>
Video Source: <span style="color: #0059b3">Vimeo, Master 1080p</span><br>
Audio Source: <span style="color: #0059b3">Qobuz &amp; Apple Music, thanks Danielo007 &amp; ZenKenShin</span></b><br>
<br>
"<b>Three Little Birds</b>" is a song by Bob Marley and the Wailers. It is the fourth track on side two of their 1977 album <i>Exodus</i> and was released as a single in 1980. The song reached the Top 20 in the UK, peaking at number 17. It is one of Marley's most popular songs and has been covered by numerous other artists. The song is often thought to be named "Don't Worry About a Thing" or "Every Little Thing is Gonna Be Alright", because of the prominent and repeated use of these phrases in the chorus.<br>
<br>
The source of Marley's inspiration for the lyrics of "Three Little Birds" remains disputed. Some believe Marley was using birds as a metaphor for the way Jamaicans had to grow cannabis. Some believe the lyrics are partly inspired by birds that Marley was fond of that used to fly and sit next to his home. Tony Gilbert, a long time friend of Marley, was present at the time he was writing the song and elaborated, "Bob got inspired by a lot of things around him, he observed life. I remember the three little birds. They were pretty birds, canaries, who would come by the windowsill at Hope Road." However, three female singers from the reggae group I Threes who did shows with Marley claim it is a reference to them. I Threes member Marcia Griffiths remarked, "After the song was written, Bob would always refer to us as the Three Little Birds. After a show, there would be an encore, sometimes people even wanted us to go back onstage four times. Bob would still want to go back and he would say, 'What is my Three Little Birds saying?'"<br>
<br>
The music video for "Three Little Birds" is created by Seed Animation Studio and directed by Morgan Powell. When Three Little Birds was released in 1977 there wasn't much need for music videos. Roll on 43 years and Bob’s daughter, Cedella, asked Seed Animation Studio if they would be interested in making a video, because it would have been her dad’s 75th birthday this year.<br>
Marley’s daughter Cedella said in a statement of the new video: <i>“This song has helped provide hope and light for so many over the years, including me, and I hope it does the same for people now, especially with all that is going on in the world.”</i><br>
Universal Music invited Seed to pitch on the track to be released on International Weed Day (420 or 20th April) to celebrate Bob’s Rastafarian roots. The visual puts a playful spin on the classic Big Bad Wolf fairytales. With the help of Three Little Birds (who sing sweet songs), Little Pig and Big Bad Wolf take the song’s advice and we witness an unlikely friendship blossom.<br>
Morgan Powell declared about the video: <i>“I figured it would be interesting to pick two well-known enemies and flip their relationship on its head. I wanted to pose the question of what happens if you push through fear? And what’s on the other side of that? Little did we know when we started the project that by the end of production, the song's message would be even more relevant”</i><br>
<br>
<b>Release Info</b><br>
The video track is upscaled to 4K with Topaz Video AI and encoded to HEVC 10-bit.<br>
The PCM track is lossless (Qobuz Hi-Res 24-bit 96 kHz), synced with Adobe Audition.<br>
The Dolby Atmos track is lossy (Dolby Digital Plus), synced by muxing.<br>
The timed lyrics are synced and edited to match the music video.<br>
Enable the subtitles to see the lyrics.<br>
<br>
<div class="ToggleTriggerAnchor bbCodeSpoilerContainer">
<button type="button" class="button bbCodeSpoilerButton ToggleTrigger Tooltip JsOnly" data-target="> .SpoilerTarget"><span>Spoiler: <span class="SpoilerTitle">Media Info</span></span></button>
<div class="SpoilerTarget bbCodeSpoilerText">
<div class="bbCodeBlock bbCodeCode">
<div class="type">Code:</div>
<pre>General
Unique ID                      : 247794157404796820191137960952811671174 (0xBA6B6B3519E931328E0361B46952CE86)
Complete name                  : Bob Marley &amp; The Wailers - Three Little Birds.mkv
Format                         : Matroska
Format version                 : Version 4
File size                      : 445 MiB
Duration                       : 3 min 0 s
Overall bit rate               : 20.7 Mb/s
Encoded date                   : UTC 2023-05-25 13:22:37
Writing application            : mkvmerge v76.0 ('Celebration') 64-bit
Writing library                : libebml v1.4.4 + libmatroska v1.7.1

Video
ID                             : 1
Format                         : HEVC
Format/Info                    : High Efficiency Video Coding
Format profile                 : Main 10@L5@Main
Codec ID                       : V_MPEGH/ISO/HEVC
Duration                       : 3 min 0 s
Bit rate                       : 15.3 Mb/s
Width                          : 3 840 pixels
Height                         : 2 160 pixels
Display aspect ratio           : 16:9
Frame rate mode                : Constant
Frame rate                     : 23.976 (23976/1000) FPS
Original frame rate            : 24.000 FPS
Color space                    : YUV
Chroma subsampling             : 4:2:0
Bit depth                      : 10 bits
Bits/(Pixel*Frame)             : 0.077
Stream size                    : 330 MiB (74%)
Default                        : No
Forced                         : No
Color range                    : Limited
Matrix coefficients            : BT.709

Audio #1
ID                             : 2
Format                         : PCM
Format settings                : Little / Signed
Codec ID                       : A_PCM/INT/LIT
Duration                       : 3 min 0 s
Bit rate mode                  : Constant
Bit rate                       : 4 608 kb/s
Channel(s)                     : 2 channels
Sampling rate                  : 96.0 kHz
Frame rate                     : 25.005 FPS (3839 SPF)
Bit depth                      : 24 bits
Stream size                    : 98.9 MiB (22%)
Title                          : Lossless 24-bit 96 kHz
Language                       : English
Default                        : Yes
Forced                         : No

Audio #2
ID                             : 3
Format                         : E-AC-3 JOC
Format/Info                    : Enhanced AC-3 with Joint Object Coding
Commercial name                : Dolby Digital Plus with Dolby Atmos
Codec ID                       : A_EAC3
Duration                       : 3 min 0 s
Bit rate mode                  : Constant
Bit rate                       : 768 kb/s
Channel(s)                     : 6 channels
Channel layout                 : L R C LFE Ls Rs
Sampling rate                  : 48.0 kHz
Frame rate                     : 31.250 FPS (1536 SPF)
Compression mode               : Lossy
Stream size                    : 16.5 MiB (4%)
Title                          : Dolby Digital Plus with Dolby Atmos
Language                       : English
Service kind                   : Complete Main
Default                        : No
Forced                         : No
Complexity index               : 16
Number of dynamic objects      : 15
Bed channel count              : 1 channel
Bed channel configuration      : LFE

Text
ID                             : 4
Format                         : UTF-8
Codec ID                       : S_TEXT/UTF8
Codec ID/Info                  : UTF-8 Plain Text
Duration                       : 2 min 46 s
Bit rate                       : 54 b/s
Frame rate                     : 0.193 FPS
Count of elements              : 32
Stream size                    : 1.11 KiB (0%)
Title                          : Lyrics
Language                       : English
Default                        : No
Forced                         : No
</pre>
</div></div>
</div><br>
<div class="bbCodeBlock bbCodeVfcHH HiddenContent">
<div class="attribution type">Hidden Content:</div>
<blockquote>You must reply before you can see the hidden data contained here.</blockquote>
</div>
<div class="messageTextEndMarker">&nbsp;</div>
</blockquote>
</article>]]></description>
                <author><![CDATA[ADHDerby]]></author>
                </item>

                
                <item>
                <title><![CDATA[【PRORES HD】Kali Uchis - Moonlight [Master ProRes 4K] - 2023]]></title>
                <link><![CDATA[https://sharemania.us/threads/kali-uchis-moonlight-master-prores-4k-2023.221471/]]></link>
                <description><![CDATA[<article>
<blockquote class="messageText SelectQuoteContainer ugc baseHtml">
<div style="text-align: center"><img src="https://i.ibb.co/NpR2my7/Kali-Uchis-Moonlight-Master-Pro-Res-4-K-mp4.png" class="bbCodeImage LbImage" alt="[​IMG]" data-url="https://i.ibb.co/NpR2my7/Kali-Uchis-Moonlight-Master-Pro-Res-4-K-mp4.png" style=""> <br>
<br>
<div class="ToggleTriggerAnchor bbCodeSpoilerContainer">
<button type="button" class="button bbCodeSpoilerButton ToggleTrigger Tooltip JsOnly" data-target="> .SpoilerTarget"><span>Spoiler: <span class="SpoilerTitle">Mediainfo</span></span></button>
<div class="SpoilerTarget bbCodeSpoilerText"><b>General</b><br>
Complete name : Kali Uchis - Moonlight [Master ProRes 4K].mp4<br>
Format : MPEG-4<br>
Format profile : QuickTime<br>
Codec ID : qt 2005.03 (qt )<br>
File size : 14.7 GiB<br>
Duration : 3 min 7 s<br>
Overall bit rate mode : Variable<br>
Overall bit rate : 672 Mb/s<br>
Frame rate : 23.976 FPS<br>
Encoded date : 2023-04-20 19:08:27 UTC<br>
Tagged date : 2023-04-20 19:12:45 UTC<br>
Writing library : Apple QuickTime<br>
TIM : 00:00:00:00<br>
TSC : 24000<br>
TSZ : 1001<br>
<br>
<b>Video</b><br>
ID : 1<br>
Format : ProRes<br>
Format version : Version 0<br>
Format profile : 422 HQ<br>
Codec ID : apch<br>
Duration : 3 min 7 s<br>
Bit rate mode : Variable<br>
Bit rate : 671 Mb/s<br>
Width : 3 840 pixels<br>
Height : 2 160 pixels<br>
Display aspect ratio : 16:9<br>
Frame rate mode : Constant<br>
Frame rate : 23.976 (24000/1001) FPS<br>
Color space : YUV<br>
Chroma subsampling : 4:2:2<br>
Scan type : Progressive<br>
Bits/(Pixel*Frame) : 3.372<br>
Stream size : 14.6 GiB (100%)<br>
Writing library : adb0<br>
Language : English<br>
Encoded date : 2023-04-20 19:08:27 UTC<br>
Tagged date : 2023-04-20 19:08:27 UTC<br>
Color primaries : BT.709<br>
Transfer characteristics : BT.709<br>
Matrix coefficients : BT.709<br>
<br>
<b>Audio</b><br>
ID : 2<br>
Format : PCM<br>
Format settings : Little / Signed<br>
Codec ID : sowt<br>
Duration : 3 min 7 s<br>
Bit rate mode : Constant<br>
Bit rate : 1 536 kb/s<br>
Channel(s) : 2 channels<br>
Channel layout : L R<br>
Sampling rate : 48.0 kHz<br>
Bit depth : 16 bits<br>
Stream size : 34.3 MiB (0%)<br>
Language : English<br>
Encoded date : 2023-04-20 19:08:27 UTC<br>
Tagged date : 2023-04-20 19:08:27 UTC<br>
<br>
<b>Other</b><br>
ID : 3<br>
Type : Time code<br>
Format : QuickTime TC<br>
Duration : 3 min 7 s<br>
Frame rate : 23.976 (24000/1001) FPS<br>
Time code of first frame : 00:00:00:00<br>
Time code of last frame : 00:03:07:07<br>
Time code, stripped : Yes<br>
Language : English<br>
Encoded date : 2023-04-20 19:08:27 UTC<br>
Tagged date : 2023-04-20 19:08:27 UTC</div>
</div><br>
<div class="bbCodeBlock bbCodeVfcHH HiddenContent">
<div class="attribution type">Hidden Content:</div>
<blockquote>You must reply before you can see the hidden data contained here.</blockquote>
</div></div>
<div class="messageTextEndMarker">&nbsp;</div>
</blockquote>
</article>]]></description>
                <author><![CDATA[von_3649]]></author>
                </item>

                
                <item>
                <title><![CDATA[【Unreleased/Unofficial (lossy)】MP3 - Taylor Swift - This Is What You Came For]]></title>
                <link><![CDATA[https://sharemania.us/threads/taylor-swift-this-is-what-you-came-for.221464/]]></link>
                <description><![CDATA[<article>
<blockquote class="messageText SelectQuoteContainer ugc baseHtml">
My remix and remaster of TIWYCF by TS<br>
<br>
<br>
<img src="https://i.imgur.com/QTvQwmu.jpg" class="bbCodeImage LbImage" alt="[​IMG]" data-url="https://i.imgur.com/QTvQwmu.jpg" style=""> <br>
<div class="bbCodeBlock bbCodeVfcHH HiddenContent">
<div class="attribution type">Hidden Content:</div>
<blockquote>You must reply before you can see the hidden data contained here.</blockquote>
</div>
<div class="messageTextEndMarker">&nbsp;</div>
</blockquote>
</article>]]></description>
                <author><![CDATA[TrashBanjo]]></author>
                </item>

                
                <item>
                <title><![CDATA[【Requests】[REQ AUD] - Ziggy - Raise Your Glass (To Another Year)]]></title>
                <link><![CDATA[https://sharemania.us/threads/ziggy-raise-your-glass-to-another-year.221461/]]></link>
                <description><![CDATA[<article>
<blockquote class="messageText SelectQuoteContainer ugc baseHtml">
<img src="https://is2-ssl.mzstatic.com/image/thumb/Music115/v4/7e/87/70/7e8770f1-18f6-8bd3-2bd7-eb7beadb325c/cbdee89f-d852-4807-97e9-ea7844100efb.jpg/396x396bb.png" class="bbCodeImage LbImage" alt="[​IMG]" data-url="https://is2-ssl.mzstatic.com/image/thumb/Music115/v4/7e/87/70/7e8770f1-18f6-8bd3-2bd7-eb7beadb325c/cbdee89f-d852-4807-97e9-ea7844100efb.jpg/396x396bb.png" style=""><br>
<br>
<a href="https://music.apple.com/kr/album/raise-your-glass-to-another-year-feat-ben-sharkey-single/1565898307" target="_blank" class="externalLink" rel="nofollow">https://music.apple.com/kr/album/raise-your-glass-to-another-year-feat-ben-sharkey-single/1565898307</a><br>
<br>
Ziggy - Raise Your Glass (To Another Year)<br>
<br>
Somebody share please if you have it. <img src="styles/default/xenforo/smilies/big_smile-48.png" class="mceSmilie" alt=":)" title="Smile    :)">
<div class="messageTextEndMarker">&nbsp;</div>
</blockquote>
</article>]]></description>
                <author><![CDATA[hoslam]]></author>
                </item>

                
                <item>
                <title><![CDATA[【Requests】[REQ AUD] - Urias Fúria Dolby Atmos?]]></title>
                <link><![CDATA[https://sharemania.us/threads/urias-f%C3%BAria-dolby-atmos.221468/]]></link>
                <description><![CDATA[<article>
<blockquote class="messageText SelectQuoteContainer ugc baseHtml">
<a href="https://music.apple.com/br/album/f%C3%BAria/1601868986?ls" target="_blank" class="externalLink" rel="nofollow">https://music.apple.com/br/album/fúria/1601868986?ls</a>
<div class="messageTextEndMarker">&nbsp;</div>
</blockquote>
</article>]]></description>
                <author><![CDATA[Kauan0606]]></author>
                </item>

                
                <item>
                <title><![CDATA[【UPSCALED】Armin van Buuren feat. Josh Cumbee - Sunny Days [4K AI Upscale HEVC 10-bit / PCM / DD+ Dolby Atmos]]]></title>
                <link><![CDATA[https://sharemania.us/threads/armin-van-buuren-feat-josh-cumbee-sunny-days-4k-ai-upscale-hevc-10-bit-pcm-dd-dolby-atmos.221466/]]></link>
                <description><![CDATA[<article>
<blockquote class="messageText SelectQuoteContainer ugc baseHtml">
<b><img src="https://images2.imgbox.com/3a/c8/motEVXXu_o.jpg" class="bbCodeImage LbImage" alt="[​IMG]" data-url="https://images2.imgbox.com/3a/c8/motEVXXu_o.jpg" style=""> <br>
<br>
Genre: <span style="color: #0059b3">Electronic, Blues</span> <br>
Style: <span style="color: #0059b3">Dance-pop</span> <br>
Year: <span style="color: #0059b3">2017</span> <br>
Video Source: <span style="color: #0059b3">Apple Music, thanks Brungor</span><br>
Audio Source: <span style="color: #0059b3">Juno Download, Apple Music, thanks ZenKenShin</span></b><br>
<br>
"<b>Sunny Days</b>" is a song by Dutch DJ and record producer Armin van Buuren. It features the vocals from American singer-songwriter Josh Cumbee. The song was released in the Netherlands by Armada Music as a digital download on 16 June 2017. The song was written by Armin van Buuren, Benno de Goeij, Afshin Salmani, Josh Cumbee, Toby Gad and Gordon Groothedde, and it was produced by van Buuren, Salmani, Cumbee, and Gad. Single received double platinum status in the Netherlands. The song serves as the second single from van Buuren's seventh album <i>Balance</i>.<br>
<br>
<i>"'Sunny Days' was inspired by summer and all the great things that happen this time of year. So many bright days, warm nights and some of the best dance music festivals take place during these months."</i> - Armin Van Buuren for Billboard Dance<br>
<br>
The music video was shot in Bevagna and Assisi, Italy, in three days. However, while Armin van Buuren stayed a whole week in Bevagna to write the music video, the scenes with him were shot in one day.<br>
<br>
<b>Release Info</b><br>
The video track is upscaled to 4K with Topaz Video AI and encoded to HEVC 10-bit.<br>
The PCM track is lossless (Juno Download, CD quality), synced with Adobe Audition.<br>
The Dolby Atmos track is lossy (Dolby Digital Plus), synced by muxing.<br>
The timed lyrics are synced and edited to match the music video.<br>
Enable the subtitles to see the lyrics.<br>
<br>
<div class="ToggleTriggerAnchor bbCodeSpoilerContainer">
<button type="button" class="button bbCodeSpoilerButton ToggleTrigger Tooltip JsOnly" data-target="> .SpoilerTarget"><span>Spoiler: <span class="SpoilerTitle">Media Info</span></span></button>
<div class="SpoilerTarget bbCodeSpoilerText">
<div class="bbCodeBlock bbCodeCode">
<div class="type">Code:</div>
<pre>General
Unique ID                      : 33099497498246182529333997020010818018 (0x18E6BB38F0F4AF306437A8F6972CA9E2)
Complete name                  : Armin van Buuren feat. Josh Cumbee - Sunny Days.mkv
Format                         : Matroska
Format version                 : Version 4
File size                      : 546 MiB
Duration                       : 3 min 30 s
Overall bit rate               : 21.8 Mb/s
Encoded date                   : UTC 2023-05-25 14:29:45
Writing application            : mkvmerge v76.0 ('Celebration') 64-bit
Writing library                : libebml v1.4.4 + libmatroska v1.7.1
Cover                          : Yes
Attachments                    : cover.jpg

Video
ID                             : 1
Format                         : HEVC
Format/Info                    : High Efficiency Video Coding
Format profile                 : Main 10@L5@Main
Codec ID                       : V_MPEGH/ISO/HEVC
Duration                       : 3 min 30 s
Bit rate                       : 19.4 Mb/s
Width                          : 3 840 pixels
Height                         : 2 160 pixels
Display aspect ratio           : 16:9
Frame rate mode                : Constant
Frame rate                     : 25.000 FPS
Color space                    : YUV
Chroma subsampling             : 4:2:0
Bit depth                      : 10 bits
Bits/(Pixel*Frame)             : 0.093
Stream size                    : 485 MiB (89%)
Default                        : Yes
Forced                         : No
Color range                    : Limited
Color primaries                : BT.709
Transfer characteristics       : BT.709
Matrix coefficients            : BT.709

Audio #1
ID                             : 2
Format                         : PCM
Format settings                : Little / Signed
Codec ID                       : A_PCM/INT/LIT
Duration                       : 3 min 30 s
Bit rate mode                  : Constant
Bit rate                       : 1 411.2 kb/s
Channel(s)                     : 2 channels
Sampling rate                  : 44.1 kHz
Frame rate                     : 25.000 FPS (1764 SPF)
Bit depth                      : 16 bits
Stream size                    : 35.3 MiB (6%)
Title                          : Lossless
Language                       : English
Default                        : Yes
Forced                         : No

Audio #2
ID                             : 3
Format                         : E-AC-3 JOC
Format/Info                    : Enhanced AC-3 with Joint Object Coding
Commercial name                : Dolby Digital Plus with Dolby Atmos
Codec ID                       : A_EAC3
Duration                       : 3 min 30 s
Bit rate mode                  : Constant
Bit rate                       : 768 kb/s
Channel(s)                     : 6 channels
Channel layout                 : L R C LFE Ls Rs
Sampling rate                  : 48.0 kHz
Frame rate                     : 31.250 FPS (1536 SPF)
Compression mode               : Lossy
Delay relative to video        : 28 ms
Stream size                    : 19.2 MiB (4%)
Title                          : Dolby Digital Plus with Dolby Atmos
Language                       : English
Service kind                   : Complete Main
Default                        : No
Forced                         : No
Complexity index               : 16
Number of dynamic objects      : 15
Bed channel count              : 1 channel
Bed channel configuration      : LFE

Audio #3
ID                             : 4
Format                         : AAC LC
Format/Info                    : Advanced Audio Codec Low Complexity
Codec ID                       : A_AAC-2
Duration                       : 3 min 30 s
Bit rate                       : 252 kb/s
Channel(s)                     : 2 channels
Channel layout                 : L R
Sampling rate                  : 48.0 kHz
Frame rate                     : 46.875 FPS (1024 SPF)
Compression mode               : Lossy
Stream size                    : 6.31 MiB (1%)
Language                       : English
Default                        : No
Forced                         : No

Text
ID                             : 5
Format                         : UTF-8
Codec ID                       : S_TEXT/UTF8
Codec ID/Info                  : UTF-8 Plain Text
Duration                       : 3 min 12 s
Bit rate                       : 37 b/s
Frame rate                     : 0.213 FPS
Count of elements              : 41
Stream size                    : 892 Bytes (0%)
Title                          : Lyrics
Language                       : English
Default                        : No
Forced                         : No
</pre>
</div></div>
</div><br>
<div class="bbCodeBlock bbCodeVfcHH HiddenContent">
<div class="attribution type">Hidden Content:</div>
<blockquote>You must reply before you can see the hidden data contained here.</blockquote>
</div>
<div class="messageTextEndMarker">&nbsp;</div>
</blockquote>
</article>]]></description>
                <author><![CDATA[ADHDerby]]></author>
                </item>

                
                <item>
                <title><![CDATA[【Albums (lossless)】AIFF - Loïc Nottet - Addictocrate (Album) [16bit/44.1kHz]]]></title>
                <link><![CDATA[https://sharemania.us/threads/lo%C3%AFc-nottet-addictocrate-album-16bit-44-1khz.221467/]]></link>
                <description><![CDATA[<article>
<blockquote class="messageText SelectQuoteContainer ugc baseHtml">
<div style="text-align: center"><img src="https://i.ibb.co/nRDchfM/1500x1500-000000-80-0-0-8.jpg" class="bbCodeImage LbImage" alt="[​IMG]" data-url="https://i.ibb.co/nRDchfM/1500x1500-000000-80-0-0-8.jpg" style="">​</div><br>
<div style="text-align: center">​</div>
<div class="bbCodeBlock bbCodeVfcHH HiddenContent">
<div class="attribution type">Hidden Content:</div>
<blockquote>You must reply before you can see the hidden data contained here.</blockquote>
</div>
<div class="messageTextEndMarker">&nbsp;</div>
</blockquote>
</article>]]></description>
                <author><![CDATA[justiniyan]]></author>
                </item>

                
                <item>
                <title><![CDATA[【Requests】[REQ AUD] - Urias Fúria Dolby Atmos?]]></title>
                <link><![CDATA[https://sharemania.us/threads/urias-f%C3%BAria-dolby-atmos.221469/]]></link>
                <description><![CDATA[<article>
<blockquote class="messageText SelectQuoteContainer ugc baseHtml">
<a href="https://music.apple.com/br/album/f%C3%BAria/1601868986?ls" target="_blank" class="externalLink" rel="nofollow">https://music.apple.com/br/album/fúria/1601868986?ls</a>
<div class="messageTextEndMarker">&nbsp;</div>
</blockquote>
</article>]]></description>
                <author><![CDATA[Kauan0606]]></author>
                </item>

                </channel></rss>